<?xml version="1.0" encoding="utf-8"?>
<!-- Generator: Adobe Illustrator 13.0.0, SVG Export Plug-In  -->
<!DOCTYPE svg PUBLIC "-//W3C//DTD SVG 1.1//EN" "http://www.w3.org/Graphics/SVG/1.1/DTD/svg11.dtd" [
	<!ENTITY ns_flows "http://ns.adobe.com/Flows/1.0/">
]>
<svg version="1.1"
	 xmlns="http://www.w3.org/2000/svg" xmlns:xlink="http://www.w3.org/1999/xlink" xmlns:a="http://ns.adobe.com/AdobeSVGViewerExtensions/3.0/"
	 x="0px" y="0px" width="80px" height="80px" viewBox="0 0 80 80" enable-background="new 0 0 80 80" xml:space="preserve">
<defs>
</defs>
<path d="M0,10C0,4.5,4.5,0,10,0h60c5.5,0,10,4.5,10,10v60c0,5.5-4.5,10-10,10H10C4.5,80,0,75.5,0,70V10z"/>
<path fill="#FFFFFF" d="M8.9,58.8v-19h5.4c6.4,0,10,3.2,10,8.9c0,6.9-3.9,10-10.1,10H8.9z M12.4,55.9h2c3.8,0,6.3-2.1,6.3-7
	c0-4.1-2.5-6.2-6.6-6.2h-1.7V55.9z"/>
<path fill="#FFFFFF" d="M29,38.6c1.2,0,1.9,0.8,1.9,1.9c0,1-0.7,1.9-1.9,1.9c-1.2,0-1.9-0.8-1.9-1.9C27.1,39.4,27.7,38.6,29,38.6z
	 M30.6,58.8h-3.3V44.6l3.3-0.1V58.8z"/>
<path fill="#FFFFFF" d="M38.5,56H42c3.1,0,4.4,1.2,4.4,3.5c0,2.7-2.3,4.9-7.5,4.9c-4.1,0-6-1.4-6-3.7c0-1.4,0.8-2.5,2.2-3.1v-0.1
	c-0.7-0.3-1.1-1.1-1.1-1.9c0-0.9,0.5-1.7,1.6-2.1v-0.1c-1.3-0.7-2.1-1.9-2.1-3.8c0-3.5,2.3-5.3,6-5.3c0.8,0,1.5,0.1,2.2,0.3h4.6v2.2
	h-2.2v0.1c0.6,0.5,1.1,1.4,1.1,2.7c0,3.1-2.1,4.8-6.1,4.8c-0.6,0-1.2-0.1-1.8-0.2c-0.4,0.2-0.6,0.5-0.6,0.9
	C36.7,55.7,37.2,56,38.5,56z M39.1,62c3.1,0,4.2-0.8,4.2-1.9c0-0.8-0.5-1.3-1.9-1.3l-4.7-0.1c-0.5,0.4-0.8,0.8-0.8,1.5
	C35.9,61.3,36.9,62,39.1,62z M42.2,49.3c0-1.7-1-2.7-2.8-2.7c-1.6,0-2.8,0.9-2.8,2.9c0,1.9,1,2.6,2.7,2.6
	C41.1,52.1,42.2,51.3,42.2,49.3z"/>
<path fill="#E17000" d="M50.4,38.6c1.2,0,1.9,0.8,1.9,1.9c0,1-0.7,1.9-1.9,1.9c-1.2,0-1.9-0.8-1.9-1.9
	C48.5,39.4,49.2,38.6,50.4,38.6z M52.1,58.8h-3.3V44.6l3.3-0.1V58.8z"/>
<path fill="#E17000" d="M55.9,58.8v-19h5.4c6.4,0,10,3.2,10,8.9c0,6.9-3.9,10-10.1,10H55.9z M59.3,55.9h2c3.8,0,6.3-2.1,6.3-7
	c0-4.1-2.5-6.2-6.6-6.2h-1.7V55.9z"/>
</svg>
